<svg xmlns="http://www.w3.org/2000/svg" viewBox="0 0 64 64" fill="none">
  <rect x="12" y="8" width="40" height="48" rx="6" fill="#fff" stroke="#E8EAF0" stroke-width="1.5"/>
  <rect x="18" y="14" width="28" height="10" rx="2" fill="#0F1115"/>
  <g fill="#0F1115">
    <rect x="18" y="28" width="6" height="6" rx="1.5"/>
    <rect x="26" y="28" width="6" height="6" rx="1.5"/>
    <rect x="34" y="28" width="6" height="6" rx="1.5"/>
    <rect x="18" y="36" width="6" height="6" rx="1.5"/>
    <rect x="26" y="36" width="6" height="6" rx="1.5"/>
    <rect x="34" y="36" width="6" height="6" rx="1.5"/>
    <rect x="18" y="44" width="6" height="6" rx="1.5"/>
    <rect x="26" y="44" width="6" height="6" rx="1.5"/>
    <rect x="34" y="44" width="6" height="6" rx="1.5"/>
  </g>
  <rect x="42" y="36" width="6" height="14" rx="1.5" fill="#C41E3A"/>
  <rect x="42" y="28" width="6" height="6" rx="1.5" fill="#C41E3A" opacity="0.7"/>
</svg>
